<?xml version="1.0" encoding="utf-8"?>
<!-- Generator: Adobe Illustrator 27.5.0, SVG Export Plug-In . SVG Version: 6.00 Build 0)  -->
<svg version="1.1" xmlns="http://www.w3.org/2000/svg" xmlns:xlink="http://www.w3.org/1999/xlink" x="0px" y="0px"
	 viewBox="0 0 500 500" style="enable-background:new 0 0 500 500;" xml:space="preserve">
<g id="BACKGROUND">
	<rect style="fill:#CCC9C2;" width="500" height="500"/>
</g>
<g id="OBJECTS">
	<g>
		<path style="fill:#37291C;" d="M271.384,138.732c0,2.143-1.737,3.88-3.88,3.88c-2.143,0-3.88-1.737-3.88-3.88
			c0-2.143,1.737-3.88,3.88-3.88C269.647,134.852,271.384,136.589,271.384,138.732z"/>
		<path style="fill:#37291C;" d="M486.497,138.732c0,2.143-1.737,3.88-3.88,3.88c-2.143,0-3.88-1.737-3.88-3.88
			c0-2.143,1.737-3.88,3.88-3.88C484.76,134.852,486.497,136.589,486.497,138.732z"/>
		<rect x="268.382" y="136.257" style="fill:#37291C;" width="213.356" height="4.95"/>
		<g>
			<rect x="273.385" y="141.207" style="fill:#6E4237;" width="203.35" height="159.257"/>
			<rect x="278.388" y="146.21" style="fill:#EDEAE1;" width="193.344" height="149.251"/>
			<linearGradient id="SVGID_1_" gradientUnits="userSpaceOnUse" x1="323.9681" y1="83.6428" x2="323.9681" y2="298.8741">
				<stop  offset="7.100001e-04" style="stop-color:#FFFFFF"/>
				<stop  offset="0.6616" style="stop-color:#FFFFFF;stop-opacity:0"/>
			</linearGradient>
			<polygon style="opacity:0.5;fill:url(#SVGID_1_);" points="278.388,146.21 278.388,295.46 347.982,295.46 369.548,146.21 			"/>
			
				<linearGradient id="SVGID_00000001659515861006848740000011054683962634947222_" gradientUnits="userSpaceOnUse" x1="410.1448" y1="80.9973" x2="410.1448" y2="297.9569">
				<stop  offset="7.100001e-04" style="stop-color:#FFFFFF"/>
				<stop  offset="0.6616" style="stop-color:#FFFFFF;stop-opacity:0"/>
			</linearGradient>
			<polygon style="fill:url(#SVGID_00000001659515861006848740000011054683962634947222_);" points="395.254,146.21 373.688,295.46 
				395.036,295.46 446.602,146.21 			"/>
		</g>
		<g>
			<path style="fill:#FEB159;" d="M301.668,300.463L301.668,300.463c4.265,2.91,9.877,2.91,14.141,0l0,0V136.257h-14.141V300.463z"
				/>
			<path style="fill:#EDA553;" d="M287.527,300.463L287.527,300.463c4.265,2.91,9.877,2.91,14.141,0l0,0V136.257h-14.141V300.463z"
				/>
			<path style="fill:#FEB159;" d="M273.385,300.463L273.385,300.463c4.265,2.91,9.877,2.91,14.141,0l0,0V136.257h-14.141V300.463z"
				/>
		</g>
		<g>
			<path style="fill:#FEB159;" d="M462.594,300.463L462.594,300.463c4.265,2.91,9.877,2.91,14.141,0l0,0V136.257h-14.141V300.463z"
				/>
			<path style="fill:#EDA553;" d="M448.453,300.463L448.453,300.463c4.265,2.91,9.877,2.91,14.141,0l0,0V136.257h-14.141V300.463z"
				/>
			<path style="fill:#FEB159;" d="M434.311,300.463L434.311,300.463c4.265,2.91,9.877,2.91,14.141,0l0,0V136.257h-14.141V300.463z"
				/>
		</g>
	</g>
	<line style="fill:none;stroke:#382300;stroke-width:0.25;stroke-miterlimit:10;" x1="499.959" y1="385.706" x2="0" y2="385.706"/>
	<g>
		<g>
			<g>
				<g>
					<path style="fill:#37291C;" d="M399.606,398.084L399.606,398.084c-1.18,0-2.042-1.112-1.749-2.255l8.185-31.865h5.69
						l-7.928,30.863C403.313,396.744,401.585,398.084,399.606,398.084z"/>
				</g>
			</g>
		</g>
		<g>
			
				<linearGradient id="SVGID_00000172407112724585321140000011014985839349728138_" gradientUnits="userSpaceOnUse" x1="449.8773" y1="344.8762" x2="449.8773" y2="291.2144">
				<stop  offset="0" style="stop-color:#D4C9BC"/>
				<stop  offset="1" style="stop-color:#FAEEDE"/>
			</linearGradient>
			<path style="fill:url(#SVGID_00000172407112724585321140000011014985839349728138_);" d="M499.959,283.018h-90.975
				c-5.075,0-9.189,4.114-9.189,9.189v52.774h100.163V283.018z"/>
			<g>
				<path style="fill:#DED3C3;" d="M444.828,294.419c0,0.775-0.628,1.403-1.403,1.403c-0.775,0-1.403-0.628-1.403-1.403
					c0-0.775,0.628-1.403,1.403-1.403C444.199,293.016,444.828,293.644,444.828,294.419z"/>
				<path style="fill:#DED3C3;" d="M444.828,311.632c0,0.775-0.628,1.403-1.403,1.403c-0.775,0-1.403-0.628-1.403-1.403
					c0-0.775,0.628-1.403,1.403-1.403C444.199,310.229,444.828,310.857,444.828,311.632z"/>
			</g>
			
				<linearGradient id="SVGID_00000093142409469631037320000016259495777311119014_" gradientUnits="userSpaceOnUse" x1="449.8978" y1="347.6019" x2="449.8978" y2="323.9088">
				<stop  offset="0" style="stop-color:#D4C9BC"/>
				<stop  offset="0.2923" style="stop-color:#E4D8C9"/>
				<stop  offset="0.6579" style="stop-color:#F1E4D3"/>
				<stop  offset="1" style="stop-color:#F5E8D7"/>
			</linearGradient>
			<path style="fill:url(#SVGID_00000093142409469631037320000016259495777311119014_);" d="M500,344.981H399.796v-11.973
				c0-5.624,4.559-10.183,10.183-10.183h79.839c5.624,0,10.183,4.559,10.183,10.183V344.981z"/>
			<path style="fill:#FFF2E0;" d="M499.959,344.981H399.796v-30.946c0-2.72-2.205-4.925-4.925-4.925h-9.134
				c-2.72,0-4.925,2.205-4.925,4.925v41.662c0,4.566,3.702,8.268,8.268,8.268h110.88V344.981z"/>
		</g>
		<g>
			<g>
				<g>
					<path style="fill:#4D3D30;" d="M380.114,398.084L380.114,398.084c-1.18,0-2.043-1.112-1.749-2.255l8.185-31.865h5.691
						l-7.928,30.863C383.82,396.744,382.093,398.084,380.114,398.084z"/>
				</g>
				<g>
					<rect x="387.233" y="363.964" style="fill:#4D3D30;" width="112.726" height="4.384"/>
				</g>
			</g>
		</g>
	</g>
	<g>
		<rect x="52.487" y="136.714" style="fill:#6E4237;" width="142.087" height="89.195"/>
		<rect x="57.487" y="141.714" style="fill:#BDE5F5;" width="132.087" height="79.195"/>
		<polygon style="fill:#4D6E33;" points="57.057,197.548 189.575,197.548 189.575,220.909 57.487,220.909 		"/>
		<g>
			<g>
				<path style="fill:#405C2B;" d="M179.157,191.187c-4.414-0.926-11.249-10.263-13.313-12.164
					c-6.475-5.965-16.566-4.451-21.988,3.293c-7.129-4.975-15.43-10.035-22.764-5.68c-5.137,3.05-8.882,10.364-14.402,11.532
					c-3.147,0.666-6.298-0.831-9.46-1.345c-7.646-1.243-15.806,1.918-20.21,10.725h112.554
					C186.855,195.407,183.29,192.053,179.157,191.187z"/>
			</g>
		</g>
		<path style="fill:#4D6E33;" d="M150.964,188.359c-1.355,0.059-2.548,1.259-3.794,2.057c-2.817,1.803-6.195,1.507-8.852-0.776
			c-1.425-1.224-2.721-3.019-4.351-3.327c-2.546-0.481-4.628,2.754-6.871,4.622c-7.304,6.083-17.599-0.744-24.36,6.613h57.167
			C156.558,195.452,154.588,188.202,150.964,188.359z"/>
		<g>
			<g>
				<path style="fill:#567A39;" d="M87.329,187.054c-2.871-1.912-6.147,6.186-8.597,1.921c-0.554-0.964-0.947-2.447-1.514-3.361
					c-1.331-2.147-2.862,1.158-4.213,3.224c-1.351,2.066-1.599,4.513-7.794,4.615c-3.761,0.062-3.957,2.341-8.154,4.096h41.435
					c-3.184-0.897-6.449-3.723-9.187-7.96C88.673,188.608,88.046,187.531,87.329,187.054z"/>
			</g>
		</g>
		<g>
			
				<ellipse transform="matrix(0.7071 -0.7071 0.7071 0.7071 -87.7455 110.457)" style="opacity:0.3;fill:#FCFCFC;" cx="89.461" cy="161.147" rx="14.194" ry="14.194"/>
			
				<ellipse transform="matrix(0.1629 -0.9866 0.9866 0.1629 -84.1089 223.1555)" style="fill:#FCFCFC;" cx="89.461" cy="161.147" rx="7.399" ry="7.399"/>
		</g>
		<path style="fill:#E3F8F9;" d="M166.136,161.086c-0.673-0.272-1.281-0.69-1.96-0.948c-3.623-1.373-7.893,2.152-11.38,0.464
			c-0.667-0.323-1.265-0.827-1.995-0.953c-1.721-0.296-3.024,1.561-4.698,2.058c-0.679,0.202-1.402,0.171-2.11,0.186
			c-1.541,0.033-3.077,0.298-4.54,0.781l36.329-0.193C173.202,160.408,169.205,162.324,166.136,161.086z"/>
		<path style="fill:#E3F8F9;" d="M96.787,173.618c-1.59-0.468-3.121-1.393-4.771-1.244c-1.095,0.099-2.166,0.673-3.244,0.456
			c-1.43-0.288-2.247-1.819-3.542-2.488c-1.52-0.785-3.379-0.245-4.917,0.503c-1.538,0.749-3.058,1.717-4.767,1.778
			c-1.001,0.036-1.998-0.247-2.997-0.175c-1,0.073-2.093,0.677-2.205,1.673l39.115,0.209
			C105.414,173.004,100.87,174.821,96.787,173.618z"/>
		
			<line style="fill:none;stroke:#382300;stroke-width:0.25;stroke-miterlimit:10;" x1="52.487" y1="136.714" x2="57.487" y2="141.714"/>
		
			<line style="fill:none;stroke:#382300;stroke-width:0.25;stroke-miterlimit:10;" x1="194.575" y1="136.714" x2="189.575" y2="141.714"/>
		<rect x="46.885" y="136.714" style="fill:#4A291B;" width="5.602" height="89.195"/>
	</g>
	<g>
		<rect x="166.145" y="284.068" style="fill:#5F372F;" width="52.626" height="114.016"/>
		<rect x="218.771" y="284.068" style="fill:#6E4237;" width="77.924" height="114.016"/>
		<rect x="218.771" y="284.068" style="fill:#4A291B;" width="77.924" height="4.07"/>
		<path style="fill:#4A291B;" d="M264.344,296.152h-13.221c-6.674,0-12.084-5.41-12.084-12.084l0,0h37.388l0,0
			C276.427,290.742,271.017,296.152,264.344,296.152z"/>
		<rect x="218.771" y="320.781" style="fill:#4A291B;" width="77.924" height="4.07"/>
		<path style="fill:#4A291B;" d="M264.344,332.865h-13.221c-6.674,0-12.084-5.41-12.084-12.084l0,0h37.388l0,0
			C276.427,327.455,271.017,332.865,264.344,332.865z"/>
		<rect x="218.771" y="357.494" style="fill:#4A291B;" width="77.924" height="4.07"/>
		<path style="fill:#4A291B;" d="M264.344,369.578h-13.221c-6.674,0-12.084-5.41-12.084-12.084l0,0h37.388l0,0
			C276.427,364.168,271.017,369.578,264.344,369.578z"/>
		<rect x="166.145" y="278.726" style="fill:#F6A65D;" width="52.626" height="5.342"/>
		<rect x="218.771" y="278.726" style="fill:#CD6D3D;" width="77.924" height="5.342"/>
	</g>
	<g>
		<g>
			<path style="fill:#693B21;" d="M215.149,275.76h29.557c5.239-3.82,8.585-9.627,8.585-16.133c0-11.505-10.46-20.832-23.364-20.832
				c-12.903,0-23.364,9.327-23.364,20.832C206.564,266.133,209.91,271.94,215.149,275.76z"/>
			<g>
				<polygon style="fill:#FFFBF5;" points="260.843,242.973 199.012,242.973 211.55,184.916 248.305,184.916 				"/>
				<polygon style="fill:#FFF2E0;" points="209.917,192.476 241.048,192.476 249.77,242.973 199.012,242.973 				"/>
			</g>
			<path style="opacity:0.05;fill:#FFFFFF;" d="M222.042,257.164c-2.322,4.642-6.776,7.118-9.947,5.531
				c-3.171-1.587-3.86-6.636-1.537-11.277c2.322-4.642,6.776-7.118,9.947-5.531C223.676,247.473,224.364,252.522,222.042,257.164z"
				/>
			<polygon style="fill:#4D2B18;" points="215.149,275.76 244.706,275.76 245.96,279.937 213.895,279.937 			"/>
		</g>
		
			<linearGradient id="SVGID_00000021107327219923552630000000961212155913064076_" gradientUnits="userSpaceOnUse" x1="229.9276" y1="210.6676" x2="229.9276" y2="264.2857">
			<stop  offset="0" style="stop-color:#FFFFFF"/>
			<stop  offset="0.3629" style="stop-color:#FFFFFF;stop-opacity:0.5"/>
			<stop  offset="1" style="stop-color:#FFFFFF;stop-opacity:0"/>
		</linearGradient>
		<polygon style="fill:url(#SVGID_00000021107327219923552630000000961212155913064076_);" points="199.012,242.973 
			260.843,242.973 272.887,269.62 186.968,269.62 		"/>
	</g>
	<g>
		<g>
			<path style="fill:#A35631;" d="M190.292,344.948h12.315c-4.759-26.568-14.637-53.567-29.091-78.88
				c-2.231-3.907-6.387-5.778-9.129-4.117l-0.097,0.059c-2.563,1.553-2.974,5.657-0.886,9.31
				C176.899,294.942,186.031,320.169,190.292,344.948z"/>
			<g>
				<path style="fill:#5CA9C7;" d="M44.704,281.727l11.76,29.234l0.954,2.372l8.577,21.326l1.213,7.908h128.912
					c-1.854-9.727-4.387-19.507-7.587-29.234c-0.259-0.793-0.517-1.578-0.794-2.372c-3.335-9.843-7.355-19.623-12.027-29.234
					c-0.374-0.794-0.767-1.587-1.159-2.381c-2.22-4.467-4.583-8.898-7.088-13.275c-1.881-3.299-5.126-5.135-7.739-4.636H36.537
					l7.204,17.911L44.704,281.727z"/>
				<g>
					<path style="fill:#559BB8;" d="M175.711,281.727H44.704l-0.963-2.381h130.811C174.944,280.14,175.336,280.933,175.711,281.727z
						"/>
					<path style="fill:#559BB8;" d="M188.531,313.333H57.417l-0.954-2.372h131.275C188.014,311.755,188.273,312.539,188.531,313.333
						z"/>
					<path style="fill:#243340;" d="M196.555,344.948H67.572l-0.366-2.381h128.912C196.27,343.361,196.413,344.154,196.555,344.948z
						"/>
				</g>
			</g>
		</g>
		
			<linearGradient id="SVGID_00000001652436429234271480000006804786215351050389_" gradientUnits="userSpaceOnUse" x1="154.1574" y1="332.8251" x2="441.1902" y2="332.8251">
			<stop  offset="0" style="stop-color:#D4C9BC"/>
			<stop  offset="1" style="stop-color:#FAEEDE"/>
		</linearGradient>
		<path style="fill:url(#SVGID_00000001652436429234271480000006804786215351050389_);" d="M154.157,344.948v-9.751
			c0-8.005,6.489-14.495,14.494-14.495h258.044c8.005,0,14.495,6.489,14.495,14.495v9.751H154.157z"/>
		
			<linearGradient id="SVGID_00000089536306253328548370000001078966761591088544_" gradientUnits="userSpaceOnUse" x1="353.6471" y1="332.8251" x2="73.9461" y2="332.8251">
			<stop  offset="0" style="stop-color:#D4C9BC"/>
			<stop  offset="0.2923" style="stop-color:#E4D8C9"/>
			<stop  offset="0.6579" style="stop-color:#F1E4D3"/>
			<stop  offset="1" style="stop-color:#F5E8D7"/>
		</linearGradient>
		<path style="fill:url(#SVGID_00000089536306253328548370000001078966761591088544_);" d="M72.547,344.948v-9.751
			c0-8.005,6.489-14.495,14.494-14.495h254.183c8.005,0,14.495,6.489,14.495,14.495v9.751H72.547z"/>
		<g>
			<rect x="61.05" y="344.948" style="fill:#955B50;" width="387.777" height="24.935"/>
			<path style="fill:none;stroke:#8A544A;stroke-width:0.25;stroke-miterlimit:10;" d="M355.719,355.347
				c5.27,2.646,11.166,4.024,17.058,3.987c7.617-0.048,15-2.404,22.409-4.178c10.42-2.495,21.349-3.858,31.829-1.63
				c7.288,1.55,14.371,4.824,21.811,4.439"/>
			<path style="fill:none;stroke:#8A544A;stroke-width:0.25;stroke-miterlimit:10;" d="M355.975,353.611
				c3.416-2.075,7.871-2.364,11.532-0.749c1.431,0.632,2.735,1.529,4.191,2.103c2.804,1.105,6.103,0.897,8.742-0.553
				c4.34-2.385,7.036-7.882,11.978-8.345c2.689-0.252,5.218,1.136,7.816,1.868c4.989,1.406,10.638,0.265,14.674-2.964"/>
			<path style="fill:none;stroke:#8A544A;stroke-width:0.25;stroke-miterlimit:10;" d="M446.342,369.703
				c-4.083-2.749-8.538-4.945-13.206-6.508c-1.516-0.508-3.082-0.953-4.681-0.934c-3.671,0.045-6.813,2.466-10.148,4
				c-5.914,2.72-13.049,2.626-18.889-0.248c-3.134-1.542-6.167-3.9-9.654-3.689c-2.124,0.129-4.055,1.214-5.901,2.273
				c-2.934,1.684-5.868,3.367-8.802,5.051"/>
			<path style="fill:none;stroke:#8A544A;stroke-width:0.25;stroke-miterlimit:10;" d="M355.719,363.077
				c7.097-0.097,14.195-0.193,21.292-0.29c0.332-0.004,0.688-0.002,0.959,0.181c0.486,0.329,0.41,1.09,0.001,1.502
				c-0.41,0.412-1.025,0.563-1.607,0.681c-3.01,0.609-6.101,0.853-9.175,0.722c-1.883-0.08-3.952-0.252-5.472,0.812
				c1.5,1.066,3,2.132,4.5,3.198"/>
			<path style="fill:none;stroke:#8A544A;stroke-width:0.25;stroke-miterlimit:10;" d="M422.988,344.948
				c1.918,0.931,3.743,2.102,5.429,3.483c1.527,1.25,2.955,2.682,4.647,3.631c2.845,1.595,6.344,1.651,9.229,0.148
				c2.192-1.142,4.043-3.123,6.391-3.771"/>
			<path style="fill:none;stroke:#8A544A;stroke-width:0.25;stroke-miterlimit:10;" d="M403.51,357.506
				c-2.985,0.047-6.121,0.174-8.68,1.71c2.901,1.393,6.445,0.487,9.464,1.604c2.594,0.96,4.709,3.373,7.475,3.383
				c2.418,0.009,4.377-1.824,6.443-3.079c2.861-1.737,6.327-2.452,9.642-1.991c0.142-1.308-1.625-1.84-2.94-1.889
				C417.799,356.981,410.643,357.398,403.51,357.506z"/>
			<rect x="61.05" y="344.948" style="fill:#B46C60;" width="294.669" height="24.935"/>
			<path style="fill:none;stroke:#A36457;stroke-width:0.25;stroke-miterlimit:10;" d="M92.67,344.948
				c24.336,6.834,42.938-0.131,59.006,2.534c8.759,1.453,22.934,2.438,29.309,1.926c6.375-0.512,12.509-2.09,15.382-4.46"/>
			<path style="fill:none;stroke:#A36457;stroke-width:0.25;stroke-miterlimit:10;" d="M61.345,348.332
				c8.304-0.849,16.953,0.257,25.231,1.148c28.595,3.077,58.731,10.037,87.889,8.014c15.828-1.098,31.852-9.359,47.759-8.471
				c20.143,1.124,37.638,6.517,57.741,7.752c25.632,1.576,50.098-3.765,75.755-5.271"/>
			<path style="fill:none;stroke:#A36457;stroke-width:0.25;stroke-miterlimit:10;" d="M355.719,360.947
				c-20.894-2.676-37.393-2.152-57.176,1.587c-14.302,2.703-31.274,4.451-46.121,2.288c-14.852-2.164-24.963-8.89-40.7-9.348
				c-2.23-0.065-4.567,0.017-6.508,0.468c-2.43,0.565-3.882,1.615-5.275,2.602c-4.691,3.328-10.39,6.649-18.839,8.355
				c-13.334,2.693-29.229,0.656-43.294-1.33c-24.3-3.431-51.112-6.578-76.758-5.767"/>
			<path style="fill:none;stroke:#A36457;stroke-width:0.25;stroke-miterlimit:10;" d="M339.202,352.935
				c-14.256,0.694-34.304,1.128-48.537,0.358c-5.5-0.298-11.873-0.991-13.869-3.096c-0.427-0.45-0.635-0.955-1.427-1.315
				c-1.987-0.902-5.544-0.246-8.326,0.186c-8.41,1.307-17.695-0.122-26.291-1.211c-8.596-1.089-18.935-1.553-25.524,0.942"/>
			<path style="fill:none;stroke:#A36457;stroke-width:0.25;stroke-miterlimit:10;" d="M355.719,347.67
				c-9.079-1.032-17.194-1.324-25.755-0.692c-6.468,0.478-12.173,4.677-18.562,4.046c-4.561-0.45-6.187-5.391-30.052-6.077"/>
			<path style="fill:none;stroke:#A36457;stroke-width:0.25;stroke-miterlimit:10;" d="M355.719,365.46
				c-4.83,0.443-9.442-0.473-14.048-1.212c-4.606-0.739-10.016-1.317-14.322-0.323c-1.753,0.405-3.163,1.044-5.024,1.36
				c-1.801,0.306-3.826,0.276-5.776,0.241c-6.875-0.124-13.75-0.247-20.625-0.371c-2.765-0.05-7.133,0.107-7.133,1.172
				c0,1.291,18.862,2.337,27.57,3.557"/>
			<path style="fill:none;stroke:#A36457;stroke-width:0.25;stroke-miterlimit:10;" d="M61.05,365.18
				c2.128-2.823,9.507-3.845,14.699-3.126c3.992,0.553,12.112,4.332,15.95,5.043c7.416,1.373,42.649-0.037,43.608,0.655
				c0.959,0.692-2.285,2.01-4.214,2.131"/>
			<path style="fill:none;stroke:#A36457;stroke-width:0.25;stroke-miterlimit:10;" d="M185.205,369.883
				c1.898-2.736,7.142-3.464,10.467-3.288c3.325,0.176,6.793,0.821,9.89-0.401c3.747-1.479,6.182-5.424,10.036-6.597
				c3.338-1.016,6.892,0.289,10.135,1.575c7.471,2.964,16.795,5.747,24.267,8.711"/>
		</g>
		<rect x="355.719" y="369.883" style="fill:#5F372D;" width="9.921" height="28.202"/>
		<rect x="438.905" y="369.883" style="fill:#5F372D;" width="9.921" height="28.202"/>
		<rect x="61.05" y="369.883" style="fill:#5F372D;" width="9.921" height="28.202"/>
		<rect x="189.921" y="369.883" style="fill:#3D1227;" width="9.921" height="28.202"/>
		<path style="fill:#B46C60;" d="M61.061,344.948h12.315c-4.759-26.568-14.637-53.567-29.091-78.88
			c-2.231-3.907-6.387-5.778-9.129-4.117l-0.097,0.059c-2.563,1.553-2.974,5.657-0.886,9.31
			C47.668,294.942,56.8,320.169,61.061,344.948z"/>
		<path style="fill:none;stroke:#A36457;stroke-width:0.25;stroke-miterlimit:10;" d="M57.728,329.27
			c5.14,1.297,7.132,7.074,10.595,6.95c1.13-0.04,2.345-0.077,3.29,0.544"/>
		<path style="fill:none;stroke:#A36457;stroke-width:0.25;stroke-miterlimit:10;" d="M71.862,339.247
			c-0.706,1.261-2.314,1.635-3.737,1.885c-1.41,0.247-2.893,0.489-4.244,0.018c-0.665-0.232-1.263-0.627-1.927-0.863
			c-0.664-0.236-1.188-0.423-1.75,0.001"/>
		<path style="fill:none;stroke:#A36457;stroke-width:0.25;stroke-miterlimit:10;" d="M46.607,296.367
			c2.178-0.064,4.158,0.744,6.336,0.68c0.484-0.014,0.987-0.025,1.43,0.17c0.443,0.195,0.807,0.66,0.723,1.136
			c-0.051,0.289-0.251,0.525-0.432,0.756c-0.955,1.214-1.599,2.671-1.855,4.194c1.539,0.502,3.211,0.241,4.808-0.026
			c1.28-0.213,2.559-0.427,3.839-0.64"/>
		<path style="fill:none;stroke:#A36457;stroke-width:0.25;stroke-miterlimit:10;" d="M67.493,320.188
			c-1.386-1.228-4.229-3.04-6.045-3.401c-0.789-0.157-1.616-0.221-2.39-0.002c-0.577,0.163-1.099,0.475-1.613,0.783
			c-0.701,0.421-1.521,2.2-2.222,2.62"/>
		<path style="fill:none;stroke:#A36457;stroke-width:0.25;stroke-miterlimit:10;" d="M68.57,326.208
			c-2.166-1.073-4.332-2.146-6.498-3.22c-0.581-0.288-1.167-0.578-1.795-0.74c-0.491-0.127-1.082-0.148-1.434,0.218
			c-0.394,0.41-0.269,1.119,0.1,1.552c0.369,0.433,0.911,0.668,1.416,0.93c3.654,1.897,6.192,5.81,10.179,6.839
			c-0.184-0.026-0.368-0.052-0.552-0.079"/>
		<path style="fill:none;stroke:#A36457;stroke-width:0.25;stroke-miterlimit:10;" d="M33.792,270.59
			c1.731,0.347,3.019-0.797,4.641-0.099c1.587,0.683,2.407,2.406,3.596,3.659c0.949,1,2.183,1.725,3.518,2.069
			c1.55,0.398,3.331,0.341,4.527,1.405"/>
		<path style="fill:none;stroke:#A36457;stroke-width:0.25;stroke-miterlimit:10;" d="M55.942,290.366
			c-1.36-0.304-2.721-0.608-4.081-0.911c-0.581-0.13-1.173-0.264-1.687-0.565c-1.019-0.598-1.564-1.744-2.376-2.603
			c-1.27-1.345-3.14-1.936-4.595-3.079c-0.382-0.3-0.748-0.88-0.397-1.217c0.124-0.119,0.305-0.158,0.476-0.173
			c1.885-0.172,3.659,1.741,5.452,1.137c0.723-0.243,1.409-0.886,2.134-0.649c0.487,0.159,0.758,0.659,1.05,1.08
			c0.556,0.802,1.345,1.44,2.245,1.817"/>
		<path style="fill:none;stroke:#A36457;stroke-width:0.25;stroke-miterlimit:10;" d="M33.792,263.644
			c1.808-0.145,3.66,0.316,5.189,1.291c1.417,0.902,2.8,2.297,4.461,2.047c0.168-0.665-0.047-2.119-0.425-2.69"/>
		<path style="fill:none;stroke:#A36457;stroke-width:0.25;stroke-miterlimit:10;" d="M50.855,307.092
			c2.709,0.004,6.75,1.847,9.459,1.852c0.021,0.598-0.482,1.081-0.993,1.392c-0.511,0.311-1.095,0.56-1.436,1.052
			c-0.52,0.75-0.292,1.766-0.446,2.665c-0.241,1.405-1.774,3.108-2.859,4.033"/>
		<path style="opacity:0.2;fill:#FFFFFF;" d="M107.587,297.278c-7.726-3.229-14.366-8.186-20.896-13.344
			c-6.588-5.203-13.006-11.036-20.038-15.626c-0.429-0.28-0.909,0.353-0.544,0.706c3.257,3.147,7.035,5.879,10.559,8.722
			c3.56,2.872,7.113,5.755,10.706,8.585c6.138,4.834,12.515,9.474,19.822,12.381C108.084,299.056,108.447,297.638,107.587,297.278z"
			/>
		<path style="opacity:0.2;fill:#FFFFFF;" d="M86.268,297.816c-2.162-1.408-4.859-2.096-7.187-3.248
			c-2.365-1.172-4.571-2.643-6.934-3.805c-0.337-0.166-0.744,0.273-0.426,0.552c2.103,1.848,4.672,3.209,7.159,4.466
			c2.196,1.11,4.71,2.527,7.177,2.814C86.5,298.647,86.582,298.021,86.268,297.816z"/>
		<path style="opacity:0.2;fill:#FFFFFF;" d="M97.06,272.536c-0.32-0.845-0.661-1.682-1.038-2.503
			c-0.182-0.397-0.363-0.808-0.591-1.18c-0.211-0.344-0.471-0.414-0.744-0.677c-0.409-0.394-0.969,0.015-0.888,0.517
			c0.052,0.323-0.03,0.549,0.08,0.876c0.122,0.362,0.317,0.711,0.474,1.059c0.353,0.785,0.682,1.577,0.982,2.384
			C95.735,274.082,97.469,273.614,97.06,272.536z"/>
		<path style="opacity:0.2;fill:#FFFFFF;" d="M99.853,267.544c-0.292-0.69-1.073-1.07-1.773-1.152
			c-0.723-0.084-0.801,0.898-0.334,1.234c0.349,0.251,0.595,0.557,0.899,0.851C99.317,269.126,100.176,268.309,99.853,267.544z"/>
		<g>
			<path style="fill:#FAFAF0;" d="M140.555,320.702L140.555,320.702c-3.586,0-7.855-2.907-9.535-6.494l-6.696-14.297
				c-1.68-3.586-0.134-6.494,3.452-6.494l0,0c3.586,0,7.855,2.907,9.535,6.494l6.696,14.297
				C145.687,317.795,144.141,320.702,140.555,320.702z"/>
			<polygon style="fill:#FAFAF0;" points="127.776,293.418 140.555,320.702 102.011,320.702 89.233,293.418 			"/>
			<path style="fill:#D8D0BD;" d="M102.011,320.702L102.011,320.702c-3.586,0-7.855-2.907-9.535-6.494l-6.696-14.297
				c-1.68-3.586-0.134-6.494,3.452-6.494h0c3.586,0,7.855,2.907,9.535,6.494l6.696,14.297
				C107.143,317.795,105.597,320.702,102.011,320.702z"/>
		</g>
		<g>
			<path style="fill:#FAFAF0;" d="M201.271,320.702L201.271,320.702c-3.586,0-7.855-2.907-9.535-6.494l-6.696-14.297
				c-1.68-3.586-0.134-6.494,3.452-6.494l0,0c3.586,0,7.855,2.907,9.535,6.494l6.696,14.297
				C206.403,317.795,204.857,320.702,201.271,320.702z"/>
			<polygon style="fill:#FAFAF0;" points="188.492,293.418 201.271,320.702 162.727,320.702 149.949,293.418 			"/>
			<path style="fill:#D8D0BD;" d="M162.727,320.702L162.727,320.702c-3.586,0-7.855-2.907-9.535-6.494l-6.696-14.297
				c-1.68-3.586-0.134-6.494,3.452-6.494l0,0c3.587,0,7.855,2.907,9.535,6.494l6.696,14.297
				C167.859,317.795,166.313,320.702,162.727,320.702z"/>
		</g>
	</g>
	<g>
		<path style="fill:#2C1817;" d="M123.605,192.399c0.837-2.103-0.137-4.76-2.134-5.825c-1.998-1.064-4.746-0.39-6.025,1.478
			c-1.403-0.673-2.886-1.179-4.407-1.505c-0.737-0.158-1.485,0.011-2.235-0.059c-4.529-0.419-2.717,5.901-2.048,6.711
			c-1.456-0.266-2.781,0.907-3.589,2.146c-0.743,1.139-1.287,2.524-0.968,3.846c0.569,2.355,3.381,3.253,5.752,3.748
			c-1.008,1.145-0.969,2.975-0.154,4.265c0.816,1.289,2.262,2.078,3.751,2.41c5.248,1.171,9.74-3.355,12.832-7.064
			c1.198-1.438,2.3-3.247,2.811-5.062C127.79,195.359,126.932,190.775,123.605,192.399z"/>
		<path style="fill:#FEB159;" d="M128.89,198.673c0,0-4.524-2.882-9.954,1.997c-5.43,4.879-2.005,10.793-2.005,10.793
			L128.89,198.673z"/>
		<path style="fill:#B2614E;" d="M180.452,270.226c0,0-0.382,2.508-3.316,6.14l-1.35-6.228L180.452,270.226z"/>
		<path style="fill:#EDA553;" d="M146.766,237.29c0,0,7.553-0.914,9.244,4.647c1.691,5.561,6.912,30.569,6.912,30.569l-7.748,3.123
			C155.173,275.629,147.217,251.177,146.766,237.29z"/>
		<path style="fill:#543A1D;" d="M99.097,277.256c0,0-0.68,3.632,6.329,10.455c1.806,1.758,4.435-1.005,4.435-1.005
			S107.22,279.331,99.097,277.256z"/>
		<path style="fill:#FEB159;" d="M150.602,268.494c0,0,6.097-13.775,4.152-16.729c-2.662-4.044-7.989-14.474-7.989-14.474
			l-20.492,1.648c-10.515,2.681-15.238,4.393-15.238,4.393c15.225,35.61,10.173,53.644,10.173,53.644
			c-4.458,6.552-3.055,12.02,0.942,13.389l38.06-14.368L150.602,268.494z"/>
		<path style="opacity:0.2;fill:#FFFFFF;" d="M126.154,267.342c-1.298-0.112-2.579-0.297-3.853-0.569
			c-0.482-0.103-0.965-0.247-1.449-0.335c3.089-1.894,5.042-6.433,5.719-9.637c0.21-0.996-1.317-1.421-1.529-0.422
			c-0.429,2.02-1.18,3.896-2.315,5.626c-1.056,1.61-2.632,2.706-3.712,4.247c-0.211,0.301,0.03,0.708,0.353,0.785
			c0.758,0.776,2.012,0.954,3.037,1.168c1.239,0.258,2.491,0.431,3.75,0.551C127.058,268.842,127.058,267.42,126.154,267.342z"/>
		<path style="opacity:0.2;fill:#FFFFFF;" d="M131.715,290.75c-2.042,0.093-4.222,1.431-5.99,2.375
			c-1.708,0.912-3.926,1.902-4.899,3.663c-0.243,0.439,0.239,0.902,0.673,0.673c1.819-0.96,3.46-2.249,5.31-3.195
			c1.73-0.885,3.766-1.384,5.297-2.569C132.492,291.4,132.164,290.73,131.715,290.75z"/>
		<path style="opacity:0.2;fill:#FFFFFF;" d="M125.029,279.265c-0.908-0.004-1.935-0.092-2.785,0.266
			c-0.297,0.125-0.297,0.657,0,0.783c0.85,0.359,1.877,0.271,2.785,0.266C125.875,280.577,125.876,279.269,125.029,279.265z"/>
		<path style="opacity:0.2;fill:#FFFFFF;" d="M124.816,281.781c-0.502-0.217-1.148-0.266-1.625,0.044
			c-0.296,0.192-0.248,0.645,0.098,0.75c0.386,0.117,0.873,0.142,1.275,0.137C125.02,282.704,125.295,281.988,124.816,281.781z"/>
		<path style="opacity:0.2;fill:#FFFFFF;" d="M139.458,273.612c-1.357,1.867-2.288,3.977-3.761,5.786
			c-1.203,1.478-3.193,2.693-4.067,4.345c-0.224,0.422,0.146,0.944,0.626,0.815c2.029-0.545,3.717-2.967,4.939-4.57
			c1.324-1.737,2.728-3.825,3.134-6.008C140.429,273.438,139.778,273.171,139.458,273.612z"/>
		<path style="opacity:0.2;fill:#FFFFFF;" d="M142.554,275.723c-0.101-0.434-0.692-0.374-0.821,0
			c-0.454,1.31-0.686,2.681-1.15,3.994c-0.334,0.945,1.168,1.352,1.499,0.413C142.574,278.737,142.894,277.181,142.554,275.723z"/>
		<path style="opacity:0.2;fill:#FFFFFF;" d="M147.223,264.022c-0.357-1.557-1.15-4.259-2.769-4.946
			c-0.414-0.176-0.811,0.111-0.735,0.565c0.134,0.799,0.718,1.496,1.073,2.213c0.409,0.826,0.676,1.7,0.863,2.6
			C145.867,265.473,147.457,265.044,147.223,264.022z"/>
		<path style="opacity:0.2;fill:#FFFFFF;" d="M148.529,260.052c-0.233-0.339-0.452-0.681-0.744-0.973
			c-0.409-0.408-1.217,0.001-1.012,0.589c0.137,0.392,0.336,0.734,0.542,1.093C147.769,261.553,149.039,260.795,148.529,260.052z"/>
		<path style="fill:none;stroke:#382300;stroke-width:0.25;stroke-miterlimit:10;" d="M119.989,262.478
			c0,0,1.479,4.841,2.509,10.088c1.03,5.247,1.558,21.467,1.294,23.182c-0.264,1.714-3.487,5.566-2.337,8.717"/>
		<path style="fill:#FFFFFF;" d="M124.251,239.461c0,0,11.131,20.221,19.182,15.275c8.051-4.945-2.873-16.947-2.873-16.947
			l-14.286,1.149L124.251,239.461z"/>
		<path style="fill:none;stroke:#382300;stroke-width:0.25;stroke-miterlimit:10;" d="M131.625,273.69
			c2.363-2.342,6.037-2.573,9.364-2.631c3.327-0.057,6.982-0.204,9.438-2.45"/>
		<path style="fill:none;stroke:#382300;stroke-width:0.25;stroke-miterlimit:10;" d="M159.16,292.987c0,0-8.193-0.5-16.862,1.844
			c-5.936,1.605-15.49,3.383-23.439,12.229"/>
		<path style="fill:#2C1817;" d="M145.43,220.13c3.124,6.912,1.504,10.755-1.276,11.447c1.262,3.169,5.085,1.405,5.95,0.004
			c1.379-2.233,1.1-5.559,0.03-9.23c-0.392-1.344-2.013-2.914-3.023-3.546c-0.482-0.302-1.204-0.589-1.57,0.018
			C145.346,219.148,145.288,219.815,145.43,220.13z"/>
		<path style="fill:#2C1817;" d="M114.093,221.892c-0.451-2.558-0.286-5.185,0.458-7.674c0.863-2.886,2.156-5.643,3.822-8.152
			c1.947-2.932,4.536-5.611,7.861-6.766c3.325-1.155,9.704-1.48,11.818,1.334c2.732-1.267,3.333-1.676,6.275-2.316
			c2.942-0.64,6.085-0.67,8.897,0.409c1.7,0.652,3.363,1.866,3.774,3.639c0.411,1.777-0.533,3.565-1.534,5.09
			c-1.227,1.871-2.592,3.652-4.079,5.325c3.675-0.281,4.699,5.437,4.198,6.961c-3.684,11.208-19.428,8.204-23.748,5.917
			C131.343,228.777,115.829,231.753,114.093,221.892z"/>
		<g>
			<path style="fill:#B2614E;" d="M138.99,237.97l-1.353-13.821l-11.46-5.399l0.097,20.19c0,0,8.496,16.893,16.645,12.944
				C147.052,249.88,138.99,237.97,138.99,237.97z"/>
			<path style="fill:#995343;" d="M130.734,227.458c0,0,0.573,6.45,7.691,6.5l-0.569-7.073L130.734,227.458z"/>
			<path style="fill:#B2614E;" d="M148.156,218.781c-0.419,14.345-5.231,13.101-13.109,10.822c-5.883-1.702-9.873-7.08-8.65-13.081
				c1.224-6.001,7.08-9.873,13.081-8.65C145.479,209.096,148.335,212.659,148.156,218.781z"/>
			<path style="fill:#B2614E;" d="M127.642,220.442c0.14,1.746-1.159,3.195-2.903,3.237c-1.744,0.042-3.271-1.339-3.412-3.085
				c-0.14-1.746,1.159-3.195,2.903-3.237C125.974,217.315,127.501,218.696,127.642,220.442z"/>
			<path style="fill:none;stroke:#2C1817;stroke-width:0.5;stroke-miterlimit:10;" d="M122.696,219.693
				c1.256-0.212,2.601,0.194,3.529,1.066c-0.833,0-1.72,0.377-2.307,0.968"/>
			<path style="fill:#2C1817;" d="M140.476,215.481c0.025,0.307-1.664,0.693-2.676,0.774c-1.012,0.081-1.38-0.139-1.405-0.446
				c-0.025-0.307,1.192-0.655,2.204-0.736C139.611,214.991,140.451,215.174,140.476,215.481z"/>
			<path style="fill:#2C1817;" d="M140.552,219.213c0.047,0.58-0.139,1.068-0.415,1.09c-0.276,0.022-0.537-0.43-0.584-1.01
				c-0.047-0.58,0.139-1.068,0.415-1.09C140.244,218.182,140.506,218.634,140.552,219.213z"/>
			<path style="fill:#2C1817;" d="M144.021,215.195c0.025,0.307,1.753,0.418,2.765,0.336c1.012-0.081,1.34-0.358,1.316-0.665
				c-0.025-0.307-1.281-0.456-2.293-0.374C144.796,214.574,143.996,214.889,144.021,215.195z"/>
			<path style="fill:#2C1817;" d="M144.542,218.892c0.047,0.58,0.308,1.032,0.584,1.01c0.276-0.022,0.462-0.51,0.415-1.09
				c-0.047-0.58-0.308-1.032-0.584-1.009C144.681,217.825,144.495,218.313,144.542,218.892z"/>
			<path style="fill:none;stroke:#2C1817;stroke-width:0.5;stroke-miterlimit:10;" d="M142.419,217.443
				c0.358,1.97,1.219,6.142,0.969,6.555c-0.248,0.41-0.981,0.386-1.247,0.037"/>
			<path style="fill:none;stroke:#2C1817;stroke-width:0.5;stroke-miterlimit:10;" d="M140.924,226.396c0,0,0.622,1.013,1.367,1.047
				c0.745,0.035,1.475-0.697,1.475-0.697"/>
		</g>
		<path style="fill:#2C1817;" d="M126.078,217.88c0,0,3.082,7.726,6.096,2.007c3.014-5.719,3.772-9.67,3.772-9.67
			s6.436,4.484,7.965,3.597c1.529-0.887,1.066-2.031,1.066-2.031s3.07,2.463,4.165,1.402c1.096-1.061,0.494-12.651-9.981-11.285
			C126.61,203.536,121.085,206.41,126.078,217.88z"/>
		<path style="fill:#2C1817;" d="M126.078,217.88c2.928,6.997,1.456,10.941-1.323,11.632c1.261,3.169,5.085,1.405,5.95,0.004
			c1.379-2.233,1.1-5.559,0.03-9.23c-0.392-1.344-2.013-2.914-3.023-3.546C127.229,216.439,125.687,216.947,126.078,217.88z"/>
		<g>
			<path style="fill:#E7E3E2;" d="M163.444,265.379c0,0-10.784-5.558-14.207-6.648l0.88,29.797l14.713,0.632L163.444,265.379z"/>
			<path style="fill:#E7E3E2;" d="M163.444,265.379c0,0,1.259-5.693,8.82-13.524l2.201,28.348l-9.634,8.958L163.444,265.379z"/>
			<path style="fill:#FFFFFF;" d="M163.444,265.379c0,0-10.529-2.395-18.044-3.458l0.328,30.6c0,0,11.294-0.691,19.228-1.21
				L163.444,265.379z"/>
			<path style="fill:#FFFFFF;" d="M163.444,265.379c0,0,6.093-8.735,11.226-12.787l2.326,28.923l-12.04,9.795L163.444,265.379z"/>
			<polygon style="fill:#945B00;" points="142.581,265.787 163.444,265.379 165.112,293.995 145.04,296.367 			"/>
			<polygon style="fill:#754800;" points="163.444,265.379 176.701,253.339 179.003,281.961 165.112,293.995 			"/>
		</g>
		<path style="fill:#B2614E;" d="M139.583,280.079l-38.444,12.589c-4.032,2.21-6.065,8.948-2.062,10.799
			c2.865,1.324,41.036-19.33,41.036-19.33L139.583,280.079z"/>
		<g>
			<g>
				<g>
					<path style="fill:#B2614E;" d="M149.083,277.868c0.332-0.73-1.847-1.803-2.832-2.238c0.755-2.13,4.746-1.861,4.746-2.993
						c0-0.701-3.716-1.378-6.38,1.703c-0.522,0.604-5.035,5.74-5.035,5.74l0.53,4.057c4.55-0.485,5.384-4.326,5.384-4.326
						c0.484,0.27,2,0.99,2.292,0.539c0.297-0.458-1.125-1.355-1.834-1.726c0.756,0.356,2.211,0.89,2.427,0.512
						c0.399-0.573-1.23-1.516-2.023-1.969C147.411,277.599,148.777,278.539,149.083,277.868z"/>
				</g>
			</g>
		</g>
		<path style="fill:#B2614E;" d="M101.128,302.517c-2.952,0.582-4.728-1.188-4.122-3.875c2.234-9.909,4.337-23.009,4.337-23.009
			s8.182,6.897,8.518,11.073C109.861,286.707,104.828,301.788,101.128,302.517z"/>
		<path style="fill:#FEB159;" d="M111.036,243.331c-3.253,0.999-8.606,21.752-11.939,33.925c0,0,8.882,4.184,10.764,9.451
			c0,0,5.617-11.953,9.381-21.846C123.144,254.605,119.012,240.881,111.036,243.331z"/>
		<path style="fill:none;stroke:#382300;stroke-width:0.25;stroke-miterlimit:10;" d="M118.777,266.209
			c0.758-2.011,1.494-4.044,1.876-6.159c0.673-3.729,0.199-7.656-1.34-11.118"/>
		<path style="fill:none;stroke:#382300;stroke-width:0.25;stroke-miterlimit:10;" d="M111.289,243.48
			c1.87-0.559,3.97-0.293,5.642,0.713"/>
		<path style="opacity:0.2;fill:#FFFFFF;" d="M113.064,275.873c-0.769-0.927-2.317-1.281-3.441-1.607
			c-1.338-0.388-2.747-0.661-4.143-0.66c-0.822,0-0.67,1.203-0.03,1.19c1.279,0.238,2.554,0.432,3.806,0.8
			c1.154,0.339,2.262,1.081,3.465,1.105C113.174,276.709,113.318,276.179,113.064,275.873z"/>
		<path style="opacity:0.2;fill:#FFFFFF;" d="M113.286,272.164c-0.888-0.302-1.922-0.599-2.869-0.485
			c-0.271,0.033-0.428,0.154-0.531,0.404c-0.03,0.073-0.036,0.148-0.017,0.226c0.137,0.547,0.77,0.531,1.223,0.626
			c0.625,0.131,1.24,0.287,1.842,0.502C113.734,273.722,114.09,272.437,113.286,272.164z"/>
		<path style="fill:none;stroke:#382300;stroke-width:0.25;stroke-miterlimit:10;" d="M100.036,273.805
			c0,0,9.364,3.735,11.631,8.972"/>
		<g>
			<path style="fill:#995343;" d="M179.772,267.255c-0.168-0.373-0.278-0.79-0.391-1.201c0.249-0.636,0.759-1.841,1.235-2.383
				c0.455-0.517,1.069-0.239,1.069-0.239s-0.337,1.98-0.585,3.399c-0.03,0.169-0.039,0.336-0.041,0.502
				C180.644,267.194,180.196,267.154,179.772,267.255z"/>
			<path style="fill:#B2614E;" d="M181.06,267.334c0.156-1.169-0.357-1.843-1.021-2.565c-2.136-2.025-3.937-2.086-4.18-1.645
				c-0.355,0.646,2.222,2.246,2.836,2.715c-0.628-0.433-2.802-1.062-3.024-0.648c-0.388,0.726,1.308,1.365,2.237,1.858
				c-0.789-0.296-2.656-0.904-2.805-0.298c-0.237,0.571,2.35,1.645,2.327,1.666c0.021-0.021-2.761-0.81-2.865-0.165
				c-0.078,0.484,1.281,1.185,1.969,1.526c0,0-0.171,2.094,1.61,2.771c0,0,0.973,0.525,1.83-0.826
				C180.692,270.592,181.062,267.335,181.06,267.334z"/>
		</g>
		<g>
			<path style="fill:#404968;" d="M303.198,320.781c0,0-68.012-55.816-83.045-53.691c-15.033,2.125-98.002,43.274-98.002,43.274
				s3.602,11.015,15.123,10.928C148.795,321.206,303.198,320.781,303.198,320.781z"/>
			<path style="opacity:0.2;fill:#FFFFFF;" d="M152.182,318.748c-0.42-0.866-0.751-1.79-1.216-2.63
				c-0.295-0.533-1.177-0.174-0.992,0.418c0.266,0.858,0.712,1.678,1.114,2.479c0.336,0.67,0.663,1.624,1.388,1.941
				c0.133,0.058,0.344,0.027,0.373-0.152C152.968,320.065,152.497,319.397,152.182,318.748z"/>
			<path style="opacity:0.2;fill:#FFFFFF;" d="M155.84,319.056c-0.604-0.658-1.181-1.38-1.862-1.958
				c-0.41-0.348-1.145,0.106-0.798,0.615c0.53,0.777,1.215,1.461,1.837,2.166C155.512,320.44,156.348,319.609,155.84,319.056z"/>
			<path style="fill:none;stroke:#382300;stroke-width:0.25;stroke-miterlimit:10;" d="M128.868,307.06
				c1.698,2.853,6.664,7.36,8.958,7.506c2.294,0.146,4.572-0.412,6.776-1.063c17.192-5.077,32.273-15.953,49.575-20.642
				c4.993-1.353,10.13-2.178,15.035-3.821"/>
			<path style="fill:none;stroke:#382300;stroke-width:0.25;stroke-miterlimit:10;" d="M135.082,304.585
				c-0.107-0.172,0.273-0.152,0.387,0.015c1.864,2.745,2.567,6.251,1.905,9.502"/>
			<path style="opacity:0.2;fill:#FFFFFF;" d="M162.402,303.458c-1.819-2.144-1.727-6.48-1.746-9.126
				c-0.005-0.688-0.939-0.942-1.291-0.35c-1.722,2.901-2.268,6.307-3.642,9.337c0.179-2.348,0.407-4.699,0.422-7.042
				c0.003-0.484-0.75-0.606-0.859-0.116c-0.723,3.231-0.843,6.652-1.049,9.949c-0.045,0.719,0.873,0.799,1.223,0.331
				c2.08-2.774,2.685-6.184,3.938-9.329c0.108,1.316,0.285,2.624,0.566,3.921c0.295,1.359,0.446,2.892,1.917,3.319
				C162.428,304.511,162.73,303.844,162.402,303.458z"/>
		</g>
	</g>
	<path style="fill:none;stroke:#382300;stroke-width:0.25;stroke-miterlimit:10;" d="M108.579,290.231c0,0-2.969,0.707-5.205,1.572"
		/>
	
		<line style="fill:none;stroke:#382300;stroke-width:0.25;stroke-miterlimit:10;" x1="139.583" y1="280.079" x2="138.231" y2="281.192"/>
	<g>
		<path style="fill:#5CA9C7;" d="M422.868,320.781c0.443-6.897-15.025-5.904-19.66-5.754c-21.19,0.682-27.429-5.867-48.628-6.209
			c-17.219-0.278-34.428,3.546-51.571,1.899c-18.721-1.799-34.365-18.563-49.281-30.019c-7.646-5.872-15.396-12.414-24.877-14.165
			c-9.367-1.729-26.244,5.418-48.399,16.123c0.109,6.359-6.964,14.772-10.759,19.875c-3.337,4.488-7.88,7.905-11.822,11.873
			c-6.023,6.063-10.607,13.376-15.139,20.623c-1.362,2.178-2.772,4.524-2.704,7.092c5.187,2.332,10.625,1.743,16.16,0.433
			c5.535-1.309,10.719-3.76,15.917-6.068c10.562-4.69,44.654-17.045,50.032-15.702H422.868z"/>
		<path style="fill:none;stroke:#382300;stroke-width:0.25;stroke-miterlimit:10;" d="M143.28,343.189
			c5.537-11.542,12.994-22.159,21.971-31.285c5.497-5.588,11.672-10.766,15.34-17.694c2.245-4.24,3.44-8.942,4.615-13.594"/>
		<path style="opacity:0.2;fill:#FFFFFF;" d="M246.453,291.514c-4.768,5.749-9.948,11.14-15.541,16.092
			c-2.959,2.619-6.015,5.122-9.174,7.496c-2.791,2.096-5.789,3.96-8.482,6.178c-0.496,0.409,0.136,1.089,0.649,0.841
			c6.485-3.145,12.468-8.331,17.855-13.059c5.722-5.022,11.009-10.514,15.87-16.371
			C248.309,291.872,247.138,290.689,246.453,291.514z"/>
		<path style="opacity:0.2;fill:#FFFFFF;" d="M240.541,307.36c-3.627,4.319-7.594,8.211-11.58,12.188
			c-0.457,0.456,0.168,1.344,0.715,0.926c4.483-3.423,8.434-7.627,11.993-11.988C242.309,307.702,241.205,306.569,240.541,307.36z"
			/>
		<path style="opacity:0.2;fill:#FFFFFF;" d="M215.83,292.868c-0.737-5.281-2.174-10.664-4.675-15.396
			c-0.278-0.526-1.195-0.162-0.978,0.412c1.797,4.75,3.393,9.44,4.145,14.484c0.384,2.574,0.576,5.18,0.583,7.783
			c0.006,2.647-0.51,5.345-0.336,7.976c0.037,0.565,0.784,0.665,0.974,0.132C217.179,303.667,216.49,297.599,215.83,292.868z"/>
		<path style="opacity:0.2;fill:#FFFFFF;" d="M315.947,317.577c-3.758-1.92-8.018-3.106-11.958-4.626
			c-4.017-1.55-8.012-3.155-12.078-4.574c-0.44-0.153-0.74,0.548-0.319,0.757c3.618,1.797,7.369,3.312,11.12,4.807
			c4.138,1.65,8.422,3.741,12.756,4.771C316.127,318.868,316.598,317.909,315.947,317.577z"/>
		<path style="opacity:0.2;fill:#FFFFFF;" d="M325.563,313.781c-1.786-1.269-4.122-2.779-6.379-2.848
			c-0.513-0.016-0.635,0.66-0.248,0.917c0.929,0.617,2.007,0.962,2.997,1.472c1.002,0.516,1.948,1.116,2.857,1.781
			C325.583,315.683,326.364,314.35,325.563,313.781z"/>
		<path style="opacity:0.2;fill:#FFFFFF;" d="M380.138,312.234c-7.793,0.622-15.505,1.46-23.329,1.693
			c-1.108,0.033-1.115,1.745,0,1.727c7.801-0.128,15.84-0.606,23.494-2.2C380.98,313.313,380.84,312.178,380.138,312.234z"/>
		<path style="opacity:0.2;fill:#FFFFFF;" d="M350.351,316.019c-0.629-1.56-3.129-2.065-4.619-2.136
			c-0.577-0.027-0.718,0.91-0.138,1.021c0.837,0.159,1.665,0.371,2.446,0.719c0.67,0.299,1.251,0.746,1.999,0.806
			C350.233,316.445,350.427,316.207,350.351,316.019z"/>
		<path style="opacity:0.2;fill:#FFFFFF;" d="M193.669,310.434c-0.691-3.452-1.394-6.901-2.126-10.344
			c-0.152-0.718-1.222-0.409-1.092,0.301c0.605,3.31,1.235,6.613,1.879,9.916c0.629,3.22,0.942,6.783,2.137,9.844
			c0.176,0.452,0.907,0.431,0.898-0.121C195.31,316.836,194.294,313.559,193.669,310.434z"/>
		<path style="opacity:0.2;fill:#FFFFFF;" d="M184.57,309.37c-0.057-0.226-0.266-0.458-0.503-0.503
			c-0.703-0.132-1.133-0.027-1.394,0.646c-0.146,0.377,0.378,0.603,0.633,0.369c-0.965,0.886-1.415,2.687-1.966,3.873
			c-0.75,1.616-1.496,3.233-2.245,4.85l-4.285,9.258c-0.496,1.071,1.1,2.008,1.592,0.931c1.682-3.685,3.364-7.369,5.047-11.054
			c0.808-1.769,1.623-3.534,2.413-5.311C184.35,311.331,184.868,310.546,184.57,309.37z"/>
		<path style="opacity:0.2;fill:#FFFFFF;" d="M161.158,325.229c-1.749,1.337-3.049,3.338-4.581,4.922
			c-1.71,1.767-3.56,3.362-5.4,4.989c-0.399,0.353,0.137,1.07,0.577,0.749c1.921-1.402,3.687-3.016,5.359-4.705
			c1.584-1.601,3.592-3.411,4.488-5.511C161.71,325.419,161.451,325.006,161.158,325.229z"/>
		<path style="opacity:0.2;fill:#FFFFFF;" d="M275.296,313.531c-1.069-1.714-3.274-2.712-4.635-4.277
			c-1.627-1.87-2.75-3.988-3.797-6.216c-0.309-0.658-1.346-0.19-1.157,0.488c0.682,2.446,1.994,4.661,3.62,6.599
			c1.304,1.554,3.381,3.974,5.516,4.194C275.243,314.36,275.491,313.845,275.296,313.531z"/>
		<path style="opacity:0.2;fill:#FFFFFF;" d="M275.228,306.371c-1.016-3.281-1.901-6.575-2.625-9.933
			c-0.23-1.063-1.816-0.606-1.62,0.447c0.629,3.368,1.464,6.702,2.535,9.958C273.872,307.92,275.568,307.468,275.228,306.371z"/>
		<path style="fill:none;stroke:#382300;stroke-width:0.25;stroke-miterlimit:10;" d="M292.064,308.141
			c0.64,0.118,1.265,0.304,1.889,0.489c8.179,2.427,16.357,4.854,24.536,7.282c0.433,0.129,0.977,0.524,0.727,0.9"/>
		<path style="fill:none;stroke:#382300;stroke-width:0.25;stroke-miterlimit:10;" d="M205.979,286.384
			c7.535,5.61,16.268,9.601,25.441,11.626"/>
		<path style="fill:none;stroke:#382300;stroke-width:0.25;stroke-miterlimit:10;" d="M204.131,299.785
			c2.296,2.796,4.894,5.344,7.733,7.585"/>
	</g>
	<rect y="398.084" style="fill:#8A8A8A;" width="500" height="101.916"/>
	
		<line style="fill:none;stroke:#382300;stroke-width:0.25;stroke-miterlimit:10;" x1="59.031" y1="220.909" x2="54.031" y2="225.909"/>
	
		<line style="fill:none;stroke:#382300;stroke-width:0.25;stroke-miterlimit:10;" x1="191.118" y1="220.909" x2="196.118" y2="225.909"/>
	<g>
		<g>
			<g>
				<g>
					<path style="fill:#3B2D3C;" d="M189.377,45.045H95.495l0,0c0-3.253,2.637-5.89,5.89-5.89h82.103
						C186.74,39.155,189.377,41.792,189.377,45.045L189.377,45.045z"/>
					
						<linearGradient id="SVGID_00000093137161228053648990000000827644484327400863_" gradientUnits="userSpaceOnUse" x1="142.436" y1="45.2099" x2="142.436" y2="77.3413">
						<stop  offset="7.100001e-04" style="stop-color:#FFFFFF"/>
						<stop  offset="0.6616" style="stop-color:#FFFFFF;stop-opacity:0"/>
					</linearGradient>
					<polygon style="opacity:0.5;fill:url(#SVGID_00000093137161228053648990000000827644484327400863_);" points="95.495,45.045 
						189.377,45.045 198.831,77.525 86.041,77.525 					"/>
					<path style="fill:#3B2D3C;" d="M145.509,45.045h-6.146V33.521c0-1.697,1.376-3.073,3.073-3.073l0,0
						c1.697,0,3.073,1.376,3.073,3.073V45.045z"/>
					<rect x="141.828" style="fill:#3B2D3C;" width="1.216" height="42.1"/>
				</g>
			</g>
		</g>
		<g>
			<g>
				<g>
					<path style="fill:#3B2D3C;" d="M404.505,45.045h-93.882l0,0c0-3.253,2.637-5.89,5.89-5.89h82.103
						C401.868,39.155,404.505,41.792,404.505,45.045L404.505,45.045z"/>
					
						<linearGradient id="SVGID_00000161607520725706010710000003997656655360562066_" gradientUnits="userSpaceOnUse" x1="357.564" y1="45.2099" x2="357.564" y2="77.3413">
						<stop  offset="7.100001e-04" style="stop-color:#FFFFFF"/>
						<stop  offset="0.6616" style="stop-color:#FFFFFF;stop-opacity:0"/>
					</linearGradient>
					<polygon style="opacity:0.5;fill:url(#SVGID_00000161607520725706010710000003997656655360562066_);" points="310.623,45.045 
						404.505,45.045 413.959,77.525 301.169,77.525 					"/>
					<path style="fill:#3B2D3C;" d="M360.637,45.045h-6.146V33.521c0-1.697,1.376-3.073,3.073-3.073l0,0
						c1.697,0,3.073,1.376,3.073,3.073V45.045z"/>
					<rect x="356.956" style="fill:#3B2D3C;" width="1.216" height="42.1"/>
				</g>
			</g>
		</g>
	</g>
	<g>
		<rect x="208.669" y="436.865" style="fill:#949494;" width="38.62" height="7.65"/>
		<rect x="78.185" y="458.972" style="fill:#7A7A7A;" width="38.62" height="7.65"/>
		<rect x="153.697" y="436.865" style="fill:#858585;" width="38.62" height="7.65"/>
		<rect x="409.007" y="441.969" style="fill:#949494;" width="38.62" height="7.65"/>
		<rect x="338.747" y="468.48" style="fill:#858585;" width="38.62" height="7.65"/>
		<rect x="354.035" y="441.969" style="fill:#858585;" width="38.62" height="7.65"/>
		<rect x="389.697" y="421.812" style="fill:#7A7A7A;" width="38.62" height="7.65"/>
		<rect x="123.889" y="485.638" style="fill:#949494;" width="38.62" height="7.65"/>
		<rect x="486.814" y="481.813" style="fill:#7A7A7A;" width="13.145" height="7.65"/>
		<rect x="0.035" y="402.934" style="fill:#858585;" width="38.62" height="7.65"/>
		<rect x="0.035" y="421.788" style="fill:#949494;" width="26.833" height="7.65"/>
		<rect x="24.976" y="438.144" style="fill:#949494;" width="38.62" height="7.65"/>
		<rect x="173.148" y="410.584" style="fill:#7A7A7A;" width="38.62" height="7.65"/>
	</g>
</g>
</svg>
